<?xml version="1.0" standalone="no"?><!DOCTYPE svg PUBLIC "-//W3C//DTD SVG 1.1//EN" "http://www.w3.org/Graphics/SVG/1.1/DTD/svg11.dtd"><svg t="1639619509741" class="icon" viewBox="0 0 1024 1024" version="1.1" xmlns="http://www.w3.org/2000/svg" p-id="668" xmlns:xlink="http://www.w3.org/1999/xlink" width="200" height="200"><defs><style type="text/css"></style></defs><path d="M970.105263 323.368421H53.894737V53.894737h916.210526v269.473684zM107.789474 269.473684h808.421052V107.789474H107.789474v161.68421zM215.578947 538.947368H53.894737V377.263158h161.68421v161.68421zM107.789474 485.052632h53.894737V431.157895H107.789474v53.894737z" fill="#ffffff" p-id="669"></path><path d="M269.473684 431.157895h431.157895v53.894737H269.473684V431.157895zM538.947368 646.736842h431.157895v53.894737h-431.157895v-53.894737zM538.947368 862.315789h431.157895v53.894737h-431.157895v-53.894737zM107.789474 485.052632h53.894737v431.157894H107.789474V485.052632zM161.684211 700.631579v-53.894737h161.68421v53.894737H161.684211M161.684211 916.210526v-53.894737h161.68421v53.894737H161.684211" fill="#ffffff" p-id="670"></path><path d="M485.052632 754.526316H323.368421v-161.684211h161.684211v161.684211z m-107.789474-53.894737h53.894737v-53.894737H377.263158v53.894737zM485.052632 970.105263H323.368421v-161.68421h161.684211v161.68421z m-107.789474-53.894737h53.894737v-53.894737H377.263158v53.894737z" fill="#ffffff" p-id="671"></path><path d="M754.526316 161.684211h107.789473v53.894736h-107.789473V161.684211z" fill="#ffffff" p-id="672"></path></svg>